<?xml version="1.0" encoding="UTF-8" standalone="no"?>
<!-- Created with Inkscape (http://www.inkscape.org/) -->

<svg
   width="256"
   height="256"
   viewBox="0 0 256 256"
   version="1.1"
   id="svg1"
   xml:space="preserve"
   inkscape:version="1.4.2 (ebf0e940d0, 2025-05-08)"
   sodipodi:docname="icon.svg"
   inkscape:export-filename="icon.png"
   inkscape:export-xdpi="96"
   inkscape:export-ydpi="96"
   xmlns:inkscape="http://www.inkscape.org/namespaces/inkscape"
   xmlns:sodipodi="http://sodipodi.sourceforge.net/DTD/sodipodi-0.dtd"
   xmlns="http://www.w3.org/2000/svg"
   xmlns:svg="http://www.w3.org/2000/svg"><sodipodi:namedview
     id="namedview1"
     pagecolor="#ffffff"
     bordercolor="#000000"
     borderopacity="0.25"
     inkscape:showpageshadow="2"
     inkscape:pageopacity="0.0"
     inkscape:pagecheckerboard="false"
     inkscape:deskcolor="#d1d1d1"
     inkscape:document-units="px"
     inkscape:zoom="0.90406771"
     inkscape:cx="42.03225"
     inkscape:cy="165.91678"
     inkscape:window-width="1920"
     inkscape:window-height="1011"
     inkscape:window-x="0"
     inkscape:window-y="0"
     inkscape:window-maximized="1"
     inkscape:current-layer="layer1"
     inkscape:export-bgcolor="#ffffff00" /><defs
     id="defs1"><inkscape:path-effect
       effect="fillet_chamfer"
       id="path-effect12"
       is_visible="true"
       lpeversion="1"
       nodesatellites_param="F,0,0,1,0,0,0,1 @ F,0,0,1,0,0,0,1 @ F,0,0,1,0,0,0,1 @ F,0,0,1,0,0,0,1"
       radius="0"
       unit="px"
       method="auto"
       mode="F"
       chamfer_steps="1"
       flexible="false"
       use_knot_distance="true"
       apply_no_radius="true"
       apply_with_radius="true"
       only_selected="false"
       hide_knots="false" /><inkscape:path-effect
       effect="fillet_chamfer"
       id="path-effect4"
       is_visible="true"
       lpeversion="1"
       nodesatellites_param="F,0,0,1,0,0,0,1 @ F,0,0,1,0,0,0,1 @ F,0,0,1,0,0,0,1 @ F,0,0,1,0,0,0,1"
       radius="0"
       unit="px"
       method="auto"
       mode="F"
       chamfer_steps="1"
       flexible="false"
       use_knot_distance="true"
       apply_no_radius="true"
       apply_with_radius="true"
       only_selected="false"
       hide_knots="false" /></defs><g
     inkscape:label="Camada 1"
     inkscape:groupmode="layer"
     id="layer1"><rect
       style="fill:#ffffff;fill-opacity:1;stroke:none;stroke-width:0.25;stroke-linecap:round;stroke-linejoin:round;stroke-opacity:0.430041"
       id="rect19"
       width="256"
       height="256"
       x="0"
       y="0"
       ry="0"
       rx="0" /><path
       style="fill:#d6422b;stroke-width:1;fill-opacity:1"
       d="m 125.23222,243.83408 c -1.4784,-0.84931 -3.64855,-2.09554 -4.82258,-2.76923 -1.17402,-0.67377 -2.38362,-1.37064 -2.68799,-1.54869 -0.30438,-0.17804 -1.51397,-0.87078 -2.68799,-1.5394 -1.17402,-0.66869 -3.09515,-1.76817 -4.26916,-2.44335 -2.37888,-1.36815 -2.36433,-1.35979 -5.45505,-3.13133 -1.2175,-0.69781 -2.4271,-1.3918 -2.68799,-1.54213 -0.48988,-0.28232 -3.213324,-1.84576 -4.190104,-2.40542 -0.30438,-0.17437 -1.26494,-0.72708 -2.13459,-1.22819 -0.86964,-0.50119 -1.8302,-1.05273 -2.13458,-1.22562 -0.30437,-0.17297 -1.51397,-0.86649 -2.68799,-1.54127 -1.17402,-0.67471 -3.34418,-1.91883 -4.82258,-2.76463 -1.47839,-0.84588 -3.89759,-2.23534 -5.37598,-3.0877 -1.4784,-0.85236 -3.64855,-2.09827 -4.82257,-2.76868 -1.17402,-0.67049 -3.09515,-1.77232 -4.26916,-2.44851 -1.17403,-0.67627 -2.4192,-1.38914 -2.76706,-1.58412 -0.34786,-0.19506 -1.59303,-0.90669 -2.76704,-1.58147 -1.174029,-0.67479 -2.395893,-1.37674 -2.715278,-1.55993 -0.319377,-0.1832 -1.244367,-0.71576 -2.055521,-1.18339 -0.811155,-0.46771 -1.759444,-1.01089 -2.107304,-1.20712 -0.347859,-0.19623 -1.557453,-0.88756 -2.687994,-1.53636 -3.057669,-1.75459 -10.681543,-6.13308 -11.22632,-6.44741 -0.26089,-0.15049 -1.506069,-0.86298 -2.767054,-1.58319 -2.955933,-1.68833 -2.98628,-1.70573 -4.664453,-2.68126 -0.78268,-0.45499 -1.707663,-0.98826 -2.055522,-1.18511 -0.517457,-0.29278 -2.726209,-1.55329 -5.692218,-3.24833 -0.260898,-0.14909 -1.284042,-0.74324 -2.273662,-1.3203 -0.989611,-0.57714 -1.832472,-1.0493 -1.872998,-1.0493 -0.04051,0 -0.280342,-0.14713 -0.532912,-0.32697 l -0.459236,-0.32697 0.0047,-58.61121 0.0047,-58.6112 0.825626,-0.49714 c 0.454092,-0.27334 1.313102,-0.77141 1.908887,-1.10681 1.368046,-0.76994 2.09092,-1.18199 2.79062,-1.59061 0.304375,-0.17781 1.264942,-0.73161 2.134583,-1.23069 0.869649,-0.49916 1.794631,-1.03103 2.055522,-1.18206 0.260899,-0.15104 1.50607,-0.86274 2.767055,-1.58147 1.260985,-0.71881 2.506156,-1.43036 2.767047,-1.58124 0.260899,-0.15096 1.50607,-0.86563 2.767055,-1.58834 4.680914,-2.68267 6.41595,-3.67795 6.878098,-3.94552 0.260891,-0.15104 1.506062,-0.8661 2.767047,-1.58896 1.260985,-0.72287 3.217681,-1.84569 4.348223,-2.49503 2.579067,-1.48148 2.554191,-1.4672 5.21787,-2.99145 2.064404,-1.18137 9.363609,-5.37221 14.072429,-8.0797 1.13054,-0.65005 3.00345,-1.72314 4.16202,-2.38466 2.76587,-1.57928 2.91038,-1.6621 5.40407,-3.09847 1.17401,-0.67627 3.34417,-1.91999 4.82257,-2.76392 1.4784,-0.84393 3.64855,-2.08891 4.82257,-2.76674 1.17402,-0.67783 3.34418,-1.92296 4.822584,-2.76704 1.47839,-0.84409 3.64855,-2.08883 4.82257,-2.76611 1.17402,-0.67729 3.34417,-1.92219 4.82257,-2.76643 2.29207,-1.308978 3.89756,-2.232368 6.32469,-3.637669 0.26089,-0.151114 1.50607,-0.86399 2.76705,-1.584203 1.26099,-0.720212 2.50616,-1.433556 2.76705,-1.585217 2.3712,-1.378138 5.53709,-3.16099 5.61316,-3.16099 0.0761,0 3.24196,1.782852 5.61316,3.16099 0.2609,0.151661 1.50607,0.865005 2.76705,1.585217 1.26099,0.720213 2.50616,1.433089 2.76705,1.584203 2.42713,1.405301 4.03262,2.328691 6.32469,3.637669 1.4784,0.84424 3.64855,2.08914 4.82257,2.76643 1.17402,0.67728 3.34418,1.92202 4.82257,2.76611 1.4784,0.84408 3.64856,2.08921 4.82258,2.76704 1.17402,0.67783 3.34418,1.92281 4.82258,2.76674 1.47839,0.84393 3.64855,2.08765 4.82256,2.76392 2.49369,1.43637 2.63819,1.51919 5.40407,3.09847 1.15857,0.66152 3.03149,1.73461 4.16203,2.38466 4.70881,2.70749 12.00802,6.89833 14.07242,8.0797 2.66368,1.52425 2.63879,1.50997 5.21787,2.99145 1.13054,0.64934 3.08724,1.77216 4.34822,2.49503 1.26099,0.72286 2.50616,1.43792 2.76705,1.58896 0.46213,0.26757 2.19717,1.26285 6.8781,3.94552 1.26099,0.72271 2.50616,1.43738 2.76705,1.58834 0.2609,0.15088 1.50607,0.86243 2.76705,1.58124 1.26099,0.71873 2.50616,1.43043 2.76706,1.58147 0.26089,0.15103 1.18587,0.6829 2.05552,1.18206 0.86964,0.49908 1.83021,1.05288 2.13458,1.23069 0.6997,0.40862 1.42258,0.82067 2.79061,1.59061 0.5958,0.3354 1.45479,0.83347 1.90888,1.10681 l 0.82565,0.49714 0.005,58.6112 0.005,58.61121 -0.45923,0.32697 c -0.25257,0.17984 -0.49239,0.32697 -0.53292,0.32697 -0.0405,0 -0.88338,0.47216 -1.87301,1.0493 -0.9896,0.57706 -2.01275,1.17121 -2.27365,1.3203 -2.96602,1.69504 -5.17476,2.95555 -5.69221,3.24833 -0.34786,0.19685 -1.27285,0.73012 -2.05553,1.18511 -1.67817,0.97553 -1.70852,0.99293 -4.66445,2.68126 -1.26098,0.72021 -2.50616,1.4327 -2.76705,1.58319 -0.54478,0.31433 -8.16865,4.69282 -11.22632,6.44741 -1.13054,0.6488 -2.34014,1.34013 -2.688,1.53636 -0.34786,0.19623 -1.29614,0.73941 -2.1073,1.20712 -0.81118,0.46763 -1.73616,1.00019 -2.05552,1.18339 -0.31939,0.18319 -1.54125,0.88514 -2.71527,1.55993 -1.17402,0.67478 -2.41919,1.38641 -2.76705,1.58147 -0.34786,0.19498 -1.59303,0.90785 -2.76706,1.58412 -1.17401,0.67619 -3.09514,1.77802 -4.26916,2.44851 -1.17402,0.67041 -3.34417,1.91632 -4.82257,2.76868 -1.47839,0.85236 -3.89759,2.24182 -5.37598,3.0877 -1.4784,0.8458 -3.64856,2.08992 -4.82258,2.76463 -1.17402,0.67478 -2.38361,1.3683 -2.68799,1.54127 -0.30437,0.17289 -1.26493,0.72443 -2.13458,1.22562 -0.86964,0.50111 -1.83021,1.05382 -2.13459,1.22819 -0.97679,0.55966 -3.70024,2.1231 -4.1901,2.40542 -0.26089,0.15033 -1.47049,0.84432 -2.68799,1.54213 -2.65142,1.51973 -2.74479,1.57328 -5.45504,3.12868 -1.17402,0.67385 -3.13073,1.79323 -4.34823,2.48769 -1.2175,0.69445 -2.42709,1.38836 -2.68799,1.54205 -1.85403,1.09191 -10.23663,5.85747 -10.26134,5.83359 -0.009,-0.009 -1.22587,-0.71061 -2.70427,-1.56001 z m 4.47258,-21.36933 c 0.93168,-0.53163 1.94302,-1.109 2.24739,-1.28299 0.30438,-0.17398 1.72744,-0.99574 3.16235,-1.82625 1.43492,-0.8305 3.24931,-1.87839 4.03199,-2.32869 2.57043,-1.47867 6.56457,-3.78207 11.30537,-6.51992 0.82617,-0.47708 1.75115,-1.0098 2.05553,-1.18379 0.30437,-0.17406 1.72743,-0.9959 3.16234,-1.8264 1.43492,-0.83051 3.24931,-1.87839 4.03199,-2.32869 3.27147,-1.88191 8.49001,-4.89444 9.17079,-5.294 0.46144,-0.27077 2.99531,-1.72767 4.26917,-2.45459 0.34786,-0.1985 1.27284,-0.73309 2.05552,-1.18808 0.78268,-0.45498 1.63652,-0.94946 1.89741,-1.09885 0.26089,-0.1494 1.18588,-0.68392 2.05552,-1.18784 2.15789,-1.25037 2.30989,-1.33802 4.11105,-2.37178 0.86964,-0.49908 1.8302,-1.05437 2.13458,-1.23389 0.30438,-0.17961 0.93527,-0.54506 1.40196,-0.81224 0.4667,-0.26718 1.10707,-0.63389 1.42305,-0.8149 0.31599,-0.18108 0.89469,-0.51172 1.28604,-0.73473 0.39133,-0.22308 1.3519,-0.77789 2.13458,-1.23295 0.78268,-0.45506 1.70766,-0.98872 2.05552,-1.18589 0.34786,-0.19717 1.27284,-0.73083 2.05552,-1.18589 0.78268,-0.45498 1.70767,-0.98864 2.05553,-1.18589 0.34786,-0.19716 1.27285,-0.73083 2.05552,-1.18581 0.78268,-0.45506 1.70767,-0.98872 2.05553,-1.18589 0.53835,-0.30519 1.65156,-0.94977 3.95293,-2.28896 0.53022,-0.30855 3.33509,-1.91921 4.1901,-2.40612 0.30438,-0.17336 0.64235,-0.38746 0.75105,-0.47582 0.15733,-0.12785 0.19765,-9.92671 0.19765,-48.0357 V 79.73313 l -2.01599,-1.14069 c -1.10879,-0.62733 -2.22945,-1.26597 -2.49034,-1.41912 -0.2609,-0.15322 -1.50607,-0.86485 -2.76706,-1.58139 -1.26098,-0.71655 -2.50615,-1.42809 -2.76705,-1.58116 -0.26089,-0.15307 -1.50606,-0.86461 -2.76705,-1.58116 -1.26099,-0.71654 -2.50616,-1.42723 -2.76705,-1.57921 -0.2609,-0.15205 -1.50607,-0.8657 -2.76705,-1.58592 -2.71083,-1.54829 -2.64866,-1.51262 -5.37598,-3.08371 -1.17402,-0.67627 -3.09515,-1.77559 -4.26917,-2.44296 -1.17401,-0.66737 -2.38361,-1.35894 -2.68799,-1.53683 -0.30438,-0.17788 -1.58512,-0.91269 -2.84611,-1.63291 -1.26098,-0.72021 -2.50615,-1.43176 -2.76705,-1.58115 -0.26089,-0.14948 -1.50607,-0.86095 -2.76705,-1.58116 -1.26099,-0.72029 -2.50616,-1.43215 -2.76705,-1.58194 -2.0285,-1.16482 -9.28234,-5.32093 -9.7242,-5.57156 -0.30438,-0.17258 -1.51398,-0.86571 -2.688,-1.54026 -2.92901,-1.68279 -2.94896,-1.69418 -5.5341,-3.16778 -1.26098,-0.71881 -2.50616,-1.43051 -2.76705,-1.58155 -1.23319,-0.71381 -4.0093,-2.30364 -5.29693,-3.03337 -0.60396,-0.34227 -1.67544,-0.95602 -4.34822,-2.49089 -0.26089,-0.14979 -1.25703,-0.71873 -2.21364,-1.26433 -0.95661,-0.54561 -2.37967,-1.36674 -3.16234,-1.82477 -0.78268,-0.45803 -2.33139,-1.33958 -3.44156,-1.95902 l -2.01851,-1.12618 -1.69724,0.96858 c -0.9335,0.53273 -1.94629,1.11088 -2.25066,1.28487 -0.30438,0.17398 -1.72744,0.99582 -3.16234,1.82632 -1.43492,0.83051 -3.24931,1.8784 -4.03199,2.32862 -2.57045,1.47867 -6.56457,3.78215 -11.30538,6.51993 -0.82617,0.47707 -1.75115,1.00979 -2.05553,1.18378 -0.30437,0.17406 -1.72743,0.99613 -3.16234,1.82695 -1.434914,0.83082 -3.035854,1.75639 -3.557644,2.05682 -0.52178,0.30044 -1.16216,0.67057 -1.42305,0.82255 -0.2609,0.15197 -1.43491,0.82832 -2.60894,1.50287 -2.51116,1.443 -4.9462,2.84846 -5.61315,3.2399 -0.46144,0.27085 -2.99533,1.72767 -4.26917,2.45459 -0.34785,0.1985 -1.27284,0.7331 -2.05552,1.18808 -0.78268,0.45498 -1.63651,0.94946 -1.89741,1.09885 -0.26089,0.14948 -1.18588,0.684 -2.05552,1.18784 -2.15789,1.25037 -2.30989,1.3381 -4.11104,2.37178 -0.86965,0.49908 -1.83021,1.05437 -2.13459,1.23397 -0.30437,0.17953 -0.93526,0.54498 -1.40196,0.81216 -0.4667,0.26719 -1.10707,0.63373 -1.42306,0.81466 -0.31598,0.18086 -0.82353,0.47426 -1.1279,0.65207 -0.549636,0.32097 -3.136954,1.80815 -4.348233,2.4994 -0.347852,0.19849 -1.272842,0.73317 -2.055522,1.18823 -0.78268,0.45506 -1.707662,0.98864 -2.055522,1.18589 -0.53836,0.30519 -1.651566,0.94977 -3.952929,2.28888 -0.260891,0.15182 -1.185881,0.68446 -2.055522,1.18355 -0.869649,0.49908 -1.794631,1.03274 -2.055529,1.18589 -0.469399,0.27545 -3.121448,1.79986 -4.190106,2.40854 -0.304375,0.17328 -0.642345,0.38738 -0.751052,0.47574 -0.290669,0.2362 -0.290669,95.35228 0,95.58848 0.108707,0.0884 0.446677,0.30246 0.751052,0.47582 0.855006,0.48691 3.659879,2.09757 4.190106,2.40612 2.301363,1.33919 3.414575,1.98377 3.952935,2.28896 0.347852,0.19717 1.272842,0.73083 2.055522,1.18589 0.78268,0.45498 1.707664,0.98865 2.055523,1.18581 0.34786,0.19725 1.272842,0.73091 2.055522,1.18589 0.78268,0.45506 1.70767,0.98872 2.055522,1.18589 0.347859,0.19717 1.272849,0.73083 2.055529,1.18589 0.78268,0.45506 1.74324,1.00987 2.134574,1.23295 0.39135,0.22301 0.97005,0.55365 1.28603,0.73473 0.31599,0.18101 0.95636,0.54772 1.42306,0.8149 0.4667,0.26718 1.09759,0.63263 1.40196,0.81224 0.30438,0.17952 1.26494,0.73481 2.13459,1.23389 1.80115,1.03376 1.95315,1.12141 4.11104,2.37178 0.86964,0.50392 1.79463,1.03844 2.05552,1.18784 0.2609,0.14939 1.11473,0.64387 1.89741,1.09885 0.78268,0.45499 1.70767,0.98958 2.05552,1.18808 1.27384,0.72692 3.80773,2.18382 4.26917,2.45459 0.68078,0.39956 5.8993,3.41209 9.17079,5.294 0.78268,0.4503 2.59708,1.49818 4.031994,2.32869 1.43491,0.8305 2.85797,1.65234 3.16234,1.8264 0.30438,0.17399 1.22936,0.70671 2.05553,1.18379 4.74081,2.73785 8.73493,5.04125 11.30538,6.51992 0.78268,0.4503 2.59707,1.49819 4.03199,2.32869 1.4349,0.83051 2.85796,1.65227 3.16234,1.82618 0.30437,0.1739 1.30051,0.74761 2.21363,1.27495 0.91313,0.52726 1.68062,0.96234 1.70554,0.96678 0.0249,0.008 0.8076,-0.42696 1.73929,-0.95867 z m -36.682094,-71.02061 -34.739393,-34.66271 3.336426,-3.39952 c 1.835033,-1.86973 6.827577,-6.95712 11.094567,-11.30532 4.26698,-4.34828 9.18174,-9.34669 10.92171,-11.10776 l 3.16355,-3.20189 h 40.968294 40.96831 l 14.41733,14.45631 c 7.92952,7.95091 14.41733,14.52649 14.41733,14.61243 0,0.26234 -69.22634,69.19866 -69.52742,69.23612 -0.18678,0.0234 -11.95584,-11.61371 -35.020704,-34.62766 z"
       id="path4" /></g></svg>
